<svg xmlns="http://www.w3.org/2000/svg" xmlns:xlink="http://www.w3.org/1999/xlink" preserveAspectRatio="xMidYMid meet" version="1.0" viewBox="-3.2 0.0 197.5 500.0" zoomAndPan="magnify" style="fill: rgb(0, 0, 0);" original_string_length="15167"><defs><clipPath id="__id437_sztv5yhopd"><path d="M 18 0 L 194.351562 0 L 194.351562 499.988281 L 18 499.988281 Z M 18 0"/></clipPath></defs><g><g clip-path="url(#__id437_sztv5yhopd)" id="__id438_sztv5yhopd"><path d="M 69.546875 474.515625 C 57.246094 477.914062 44.949219 481.214844 32.546875 484.613281 C 30.546875 485.414062 27.648438 486.8125 24.648438 489.214844 C 21.546875 491.8125 19.648438 494.515625 18.449219 496.414062 C 25.449219 497.015625 33.949219 497.3125 43.347656 496.414062 C 50.847656 495.714844 57.546875 494.515625 63.347656 493.113281 L 63.347656 496.414062 C 67.648438 496.414062 71.949219 496.414062 76.347656 496.414062 C 76.847656 494.714844 78.449219 488.8125 75.746094 482.414062 C 73.949219 478.214844 71.046875 475.714844 69.546875 474.515625 Z M 186.046875 487.613281 C 182.246094 485.113281 178.449219 484.613281 176.546875 484.414062 L 152.546875 475.214844 C 147.847656 475.914062 143.046875 476.515625 138.347656 477.214844 C 137.949219 480.214844 137.746094 483.613281 137.746094 487.3125 C 137.746094 491.214844 137.949219 494.714844 138.347656 497.8125 L 152.746094 497.8125 C 152.746094 496.515625 152.746094 495.214844 152.746094 493.914062 C 155.546875 495.3125 158.746094 496.613281 162.449219 497.613281 C 175.546875 501.414062 187.148438 499.914062 194.347656 498.214844 C 193.648438 496.515625 191.648438 491.214844 186.046875 487.613281 Z M 119.148438 13.113281 C 123.347656 19.414062 120.949219 29.8125 112.246094 34.613281 L 88.847656 60.113281 C 84.648438 67.015625 80.449219 73.914062 76.148438 80.8125 C 68.449219 87.3125 57.746094 87.714844 50.746094 82.214844 C 45.546875 78.113281 42.347656 70.714844 44.246094 63.414062 C 46.648438 54.214844 55.347656 51.015625 56.148438 50.714844 C 47.449219 40.015625 47.046875 26.3125 53.847656 18.214844 C 59.546875 11.515625 68.347656 11.015625 70.449219 11.015625 C 74.046875 4.015625 81.148438 -0.285156 88.648438 0.015625 C 97.246094 0.414062 102.246094 6.914062 102.949219 7.914062 C 109.449219 6.214844 116.046875 8.515625 119.148438 13.113281" style="fill: rgb(0, 0, 0);"/></g><g id="__id439_sztv5yhopd"><path d="M 131.148438 449.714844 L 90.148438 245.214844 L 81.449219 449.714844 C 68.746094 449.714844 56.046875 449.714844 43.246094 449.714844 C 42.949219 441.613281 40.246094 361.414062 39.648438 342.113281 C 39.648438 342.113281 38.648438 313.414062 40.449219 264.3125 C 40.949219 250.515625 42.046875 226.613281 52.746094 198.414062 C 53.847656 195.515625 54.847656 193.113281 55.546875 191.414062 L 79.648438 178.015625 C 91.949219 184.8125 104.347656 191.613281 116.648438 198.3125 C 122.546875 212.515625 130.949219 234.613281 137.648438 262.515625 C 145.046875 293.214844 146.046875 312.8125 151.648438 359.914062 C 154.046875 380.214844 157.746094 409.914062 163.246094 446.214844 M 163.246094 446.214844 L 131.148438 449.714844" style="fill: rgb(0, 0, 0);"/></g><g id="__id440_sztv5yhopd"><path d="M 54.246094 173.3125 C 54.648438 176.414062 54.949219 179.613281 55.148438 182.914062 C 55.347656 185.914062 55.546875 188.714844 55.546875 191.515625 C 62.949219 191.414062 70.347656 191.3125 77.746094 191.214844 C 82.046875 182.113281 86.347656 173.015625 90.648438 163.914062 C 86.949219 163.914062 83.246094 163.914062 79.648438 163.914062 C 71.246094 167.113281 62.746094 170.214844 54.246094 173.3125 Z M 109.046875 98.3125 C 111.246094 99.015625 113.847656 99.8125 116.449219 101.113281 C 119.746094 102.613281 122.648438 104.3125 124.949219 105.8125 C 123.847656 110.3125 122.847656 115.613281 122.246094 121.515625 C 121.847656 126.015625 121.648438 130.3125 121.746094 134.015625 L 104.546875 134.414062 C 103.046875 137.515625 101.546875 140.714844 100.046875 143.8125 C 98.246094 142.8125 96.648438 142.3125 95.347656 142.113281 C 85.449219 140.613281 77.449219 151.214844 76.847656 152.015625 C 68.546875 152.613281 60.246094 153.3125 51.949219 153.914062 C 50.949219 146.015625 49.449219 137.113281 47.148438 127.613281 C 45.046875 119.113281 42.546875 111.414062 40.046875 104.613281 C 42.546875 103.714844 45.046875 102.8125 47.546875 101.914062 C 52.449219 100.113281 57.347656 98.414062 62.148438 96.714844 C 77.746094 97.3125 93.347656 97.8125 109.046875 98.3125" style="fill: rgb(0, 0, 0);"/></g><g id="__id441_sztv5yhopd"><path d="M 104.546875 134.515625 L 74.449219 198.613281 L 80.949219 202.714844 L 140.648438 195.414062 L 169.847656 139.8125 L 161.449219 102.015625 L 143.148438 133.113281 Z M 96.746094 91.613281 C 98.449219 91.914062 100.746094 92.613281 103.246094 93.914062 C 105.949219 95.414062 107.847656 97.113281 109.046875 98.3125 C 109.347656 100.414062 109.449219 103.515625 108.847656 107.015625 C 107.746094 112.714844 105.046875 116.714844 103.449219 118.8125 L 90.847656 109.414062 C 87.746094 113.214844 84.546875 117.113281 81.449219 120.914062 C 77.949219 118.8125 72.246094 114.914062 67.546875 108.015625 C 64.746094 103.914062 63.148438 99.914062 62.148438 96.914062 C 63.746094 95.8125 65.847656 94.515625 68.347656 93.414062 C 70.449219 92.414062 72.449219 91.8125 74.148438 91.414062 C 81.546875 91.3125 89.148438 91.515625 96.746094 91.613281" style="fill: rgb(0, 0, 0);"/></g><g id="__id442_sztv5yhopd"><path d="M 131.546875 112.515625 C 129.246094 110.113281 126.746094 108.515625 124.648438 107.515625 C 123.648438 111.613281 122.847656 116.3125 122.347656 121.613281 C 121.949219 126.214844 121.746094 130.414062 121.847656 134.113281 C 127.746094 133.8125 133.546875 133.414062 139.449219 133.113281 C 139.347656 130.214844 139.046875 120.113281 131.546875 112.515625 Z M 161.648438 155.3125 C 161.046875 154.113281 157.046875 146.515625 155.648438 147.015625 C 154.148438 147.515625 156.148438 156.3125 156.449219 157.613281 C 154.546875 157.714844 151.847656 157.714844 149.046875 156.613281 C 143.449219 154.414062 141.546875 149.714844 140.148438 150.214844 C 138.546875 150.914062 139.347656 158.214844 142.246094 164.414062 C 144.746094 169.8125 148.347656 173.414062 150.847656 175.515625 C 151.847656 175.113281 158.148438 172.914062 160.949219 166.214844 C 163.046875 161.214844 162.046875 156.714844 161.648438 155.3125 Z M 76.847656 152.113281 C 68.546875 152.714844 60.246094 153.414062 51.949219 154.015625 C 51.046875 145.515625 49.449219 135.714844 46.648438 125.214844 C 44.949219 118.714844 42.949219 112.714844 40.847656 107.3125 C 32.046875 119.8125 22.746094 133.414062 13.046875 147.914062 C 4.347656 161.113281 -3.152344 172.8125 1.347656 180.613281 C 2.347656 182.414062 3.75 183.515625 4.449219 184.015625 C 17.246094 193.714844 49.847656 175.8125 54.246094 173.3125 L 79.746094 163.914062 C 83.449219 163.914062 87.148438 163.914062 90.746094 163.914062 C 93.847656 157.214844 96.949219 150.613281 100.046875 143.914062 C 98.246094 142.914062 96.648438 142.414062 95.347656 142.214844 C 85.347656 140.714844 77.449219 151.3125 76.847656 152.113281 Z M 101.046875 75.015625 C 99.246094 75.8125 97.648438 75.914062 96.746094 75.914062 C 96.546875 78.714844 96.449219 81.714844 96.449219 84.914062 C 96.449219 89.914062 96.746094 94.515625 97.148438 98.8125 C 95.046875 102.3125 92.847656 105.8125 90.746094 109.414062 L 72.449219 96.414062 C 73.949219 91.914062 75.246094 86.714844 76.246094 80.8125 C 76.746094 77.414062 77.046875 74.214844 77.246094 71.3125 C 76.347656 70.3125 75.347656 68.8125 74.449219 67.015625 C 73.648438 65.414062 73.148438 63.914062 72.847656 62.714844 C 71.847656 62.8125 69.046875 62.914062 66.949219 61.015625 C 63.246094 57.613281 64.246094 50.113281 67.046875 48.914062 C 67.648438 48.714844 68.847656 48.414062 71.246094 50.015625 C 72.449219 50.8125 73.648438 51.613281 74.746094 52.414062 C 75.546875 49.3125 76.246094 45.3125 76.347656 40.714844 C 76.449219 37.214844 76.148438 34.214844 75.746094 31.613281 C 78.546875 32.113281 82.847656 32.515625 87.847656 31.515625 C 95.347656 30.015625 100.449219 26.3125 102.949219 24.214844 C 103.648438 24.3125 104.847656 24.414062 106.148438 25.113281 C 117.648438 31.015625 115.449219 68.914062 101.046875 75.015625" style="fill: rgb(0, 0, 0);"/></g><g id="__id443_sztv5yhopd"><path d="M 54.847656 449.8125 L 54.847656 468.613281 C 50.648438 472.113281 45.949219 475.613281 40.949219 479.113281 C 38.148438 481.113281 35.347656 482.914062 32.546875 484.613281 C 35.046875 485.8125 41.847656 488.515625 50.347656 487.015625 C 61.949219 484.914062 68.246094 476.414062 69.449219 474.515625 C 69.847656 466.3125 70.246094 458.015625 70.648438 449.8125 Z M 154.949219 446.714844 C 156.148438 454.914062 157.347656 463.113281 158.546875 471.414062 C 160.949219 473.914062 164.148438 476.914062 168.347656 479.714844 C 172.546875 482.613281 176.546875 484.515625 179.746094 485.8125 C 170.847656 489.714844 165.046875 489.015625 161.347656 487.714844 C 156.347656 485.914062 153.449219 482.214844 144.648438 479.113281 C 141.949219 478.113281 139.746094 477.613281 138.246094 477.214844 C 138.847656 476.3125 139.449219 475.414062 140.046875 474.515625 C 139.148438 465.914062 138.246094 457.214844 137.347656 448.613281 L 154.949219 446.714844" style="fill: rgb(0, 0, 0);"/></g><g id="__id444_sztv5yhopd"><path d="M 107.246094 49.214844 C 107.148438 50.015625 108.347656 50.113281 108.546875 49.414062 C 108.746094 48.714844 109.246094 48.015625 110.046875 47.714844 C 110.746094 47.414062 111.546875 47.714844 111.546875 48.613281 C 111.449219 50.414062 114.449219 50.214844 114.046875 48.3125 C 113.246094 44.515625 107.546875 45.8125 107.246094 49.214844 Z M 92.847656 46.613281 C 91.148438 46.8125 89.949219 48.214844 89.246094 49.714844 C 88.746094 50.714844 90.246094 51.515625 90.746094 50.515625 C 91.148438 49.613281 91.648438 48.3125 92.847656 48.214844 C 93.949219 48.113281 94.246094 49.414062 94.648438 50.214844 C 95.449219 51.714844 97.949219 50.214844 96.949219 48.8125 C 95.949219 47.613281 94.449219 46.414062 92.847656 46.613281 Z M 106.847656 39.714844 C 108.046875 40.015625 109.148438 40.515625 110.246094 41.015625 C 111.246094 41.414062 112.347656 42.113281 113.449219 42.3125 C 114.546875 42.515625 115.449219 41.214844 114.546875 40.414062 C 112.746094 38.613281 109.449219 38.414062 107.046875 38.214844 C 106.148438 38.113281 106.046875 39.414062 106.847656 39.714844 Z M 83.949219 43.015625 C 86.847656 41.3125 89.546875 40.214844 92.847656 40.015625 C 93.847656 40.015625 93.847656 38.613281 92.847656 38.515625 C 89.347656 38.3125 85.648438 39.015625 82.746094 41.015625 C 81.546875 41.914062 82.648438 43.8125 83.949219 43.015625 Z M 97.148438 66.914062 C 96.046875 66.515625 95.449219 68.113281 96.347656 68.714844 C 97.246094 69.3125 98.847656 69.914062 99.648438 68.914062 C 100.148438 68.414062 100.046875 67.515625 99.449219 67.214844 C 98.746094 66.714844 97.949219 67.113281 97.148438 66.914062 Z M 95.648438 61.3125 C 95.148438 60.613281 94.046875 61.214844 94.449219 62.015625 C 96.648438 66.214844 102.246094 66.914062 105.949219 64.3125 C 107.449219 63.3125 106.148438 60.914062 104.546875 61.8125 C 101.648438 63.515625 97.847656 64.613281 95.648438 61.3125 Z M 131.949219 181.613281 C 123.546875 181.214844 115.046875 181.214844 106.648438 181.515625 C 104.449219 181.613281 104.449219 184.914062 106.648438 184.914062 C 115.148438 184.8125 123.546875 184.414062 131.949219 183.613281 C 133.148438 183.414062 133.148438 181.714844 131.949219 181.613281 Z M 135.746094 158.714844 C 136.746094 158.613281 136.746094 156.914062 135.746094 156.8125 C 132.148438 156.3125 128.546875 156.3125 124.949219 156.214844 C 122.847656 156.113281 122.847656 159.515625 124.949219 159.414062 C 128.546875 159.3125 132.148438 159.214844 135.746094 158.714844 Z M 147.746094 145.8125 C 139.148438 145.8125 130.449219 145.714844 121.847656 145.3125 C 119.949219 145.214844 119.847656 148.3125 121.847656 148.3125 C 130.546875 148.214844 139.148438 147.8125 147.746094 146.8125 C 148.449219 146.8125 148.449219 145.8125 147.746094 145.8125 Z M 143.847656 173.613281 C 140.046875 180.414062 136.746094 187.714844 132.648438 194.3125 C 131.449219 196.113281 134.347656 197.8125 135.546875 196.015625 C 139.746094 189.414062 142.449219 181.515625 145.347656 174.214844 C 145.648438 173.3125 144.347656 172.8125 143.847656 173.613281 Z M 166.746094 132.214844 C 146.046875 131.914062 124.949219 131.714844 104.347656 134.113281 C 102.546875 134.3125 102.347656 137.113281 104.347656 137.113281 C 106.148438 137.015625 107.949219 137.015625 109.746094 136.914062 C 98.949219 157.714844 89.847656 179.613281 80.246094 201.015625 C 79.246094 203.214844 82.449219 205.015625 83.449219 202.914062 C 93.246094 181.113281 103.746094 159.3125 111.949219 136.914062 C 128.648438 136.113281 145.347656 134.714844 162.148438 133.914062 C 162.148438 133.914062 162.148438 134.015625 162.046875 134.015625 C 161.949219 134.113281 161.949219 134.214844 161.949219 134.3125 C 161.648438 135.015625 160.949219 135.714844 160.648438 136.3125 C 160.148438 137.113281 159.648438 137.914062 159.246094 138.714844 C 158.246094 140.414062 157.246094 142.113281 156.347656 143.914062 C 155.648438 145.515625 157.847656 146.8125 158.746094 145.3125 C 160.046875 143.015625 161.148438 140.414062 162.246094 138.015625 C 162.648438 137.015625 164.148438 135.015625 163.246094 133.914062 C 164.347656 133.8125 165.546875 133.8125 166.648438 133.714844 C 167.546875 133.515625 167.546875 132.214844 166.746094 132.214844 Z M 104.746094 50.914062 C 105.046875 52.3125 104.246094 53.714844 103.148438 54.414062 C 102.546875 54.8125 103.046875 55.714844 103.648438 55.3125 C 105.246094 54.414062 106.148438 52.8125 106.148438 51.015625 C 106.148438 50.113281 105.847656 49.414062 105.449219 48.613281 C 104.648438 46.914062 104.746094 45.3125 104.546875 43.414062 C 104.347656 42.015625 102.148438 41.914062 102.347656 43.414062 C 102.449219 45.015625 102.449219 47.113281 103.347656 48.414062 C 103.746094 49.414062 104.546875 49.8125 104.746094 50.914062 Z M 67.746094 55.515625 C 67.949219 54.8125 67.746094 54.113281 67.746094 53.414062 C 67.746094 53.113281 67.746094 52.714844 67.949219 52.515625 C 68.046875 52.414062 68.148438 52.214844 68.148438 52.3125 C 68.449219 52.8125 69.347656 52.515625 69.148438 51.914062 C 68.847656 50.714844 67.449219 50.714844 66.648438 51.515625 C 66.148438 52.015625 65.949219 52.714844 65.847656 53.414062 C 65.746094 54.214844 65.546875 55.113281 66.046875 55.8125 C 66.546875 56.414062 67.546875 56.3125 67.746094 55.515625 Z M 69.148438 65.8125 C 73.148438 74.714844 86.949219 77.015625 95.546875 76.914062 C 96.347656 76.914062 96.347656 75.8125 95.546875 75.714844 C 90.246094 75.414062 84.949219 73.914062 80.246094 71.515625 C 76.546875 69.613281 73.847656 66.8125 70.648438 64.414062 C 69.648438 63.613281 68.746094 64.914062 69.148438 65.8125 Z M 76.246094 153.214844 C 66.847656 153.8125 57.546875 154.714844 48.347656 156.515625 C 39.746094 158.214844 31.347656 161.214844 22.746094 162.914062 C 21.449219 163.214844 20.449219 161.3125 21.746094 160.613281 C 29.847656 156.613281 39.648438 154.714844 48.449219 153.414062 C 57.648438 152.015625 66.847656 151.3125 76.148438 151.8125 C 77.046875 151.914062 77.046875 153.113281 76.246094 153.214844" style="fill: rgb(0, 0, 0);"/></g></g></svg>
